<?xml version="1.0" standalone="no"?> <!DOCTYPE svg PUBLIC "-//W3C//DTD SVG 1.0//EN" "http://www.w3.org/TR/2001/REC-SVG-20010904/DTD/svg10.dtd" > <svg xmlns="http://www.w3.org/2000/svg" width="100%" height="100%">
<defs >
<font id="hypatiasanspro-regular" horiz-adv-x="548" ><font-face
    font-family="Hypatia Sans Pro"
    units-per-em="1000"
    panose-1="2 11 5 2 2 2 4 2 3 3"
    ascent="734"
    descent="-266"
    alphabetic="0" />
<missing-glyph horiz-adv-x="462" d="M0 0V647H462V0H0ZM74 46H388L231 282L74 46ZM259 324L416 88V560L259 324ZM46 560V88L203 324L46 560ZM74 601L231 365L388 601H74Z" />
<glyph unicode=" " glyph-name="space" horiz-adv-x="217" />
<glyph unicode="!" glyph-name="exclam" horiz-adv-x="317" d="M164 300V559Q164 625 160 667H245Q242 632 242 559V300Q242 228 245 192H160Q164 240 164 300ZM151 41Q151 63 165 77T201 92Q223 92 237 78T252 41Q252 20 237 6T201 -9T166 6T151 41Z" />
<glyph unicode="&quot;" glyph-name="quotedbl" horiz-adv-x="324" d="M50 719H129L117 464H62L50 719ZM195 719H274L262 464H207L195 719Z" />
<glyph unicode="#" glyph-name="numbersign" horiz-adv-x="518" d="M148 18H92L126 214H36V270H135L159 409H60V464H168L199 650H255L224 464H341L372 650H429L397 464H486V409H389L364 270H464V214H355L321 18H266L298 214H181L148 18ZM190 270H308L332 409H214L190
270Z" />
<glyph unicode="$" glyph-name="dollar" horiz-adv-x="518" d="M202 495Q202 466 219 441T261 399T315 361T370 319T412 264T429 186Q429 123 391 78T289 21V-30H233V17Q205 18 161 27T102 38V141Q119 112 160 94T245 76T315 105T342 179Q342 214 319 242T263
292T197 337T141 399T118 488Q118 548 151 588T242 641L241 692H297V647Q324 646 361 639T412 631V533Q383 589 301 589Q259 589 231 565T202 495Z" />
<glyph unicode="%" glyph-name="percent" horiz-adv-x="731" d="M193 684H194Q257 684 301 638T345 527Q345 458 301 410T192 362T84 408T39 520Q39 588 84 636T193 684ZM193 626H192Q154 626 127 596T99 523T126 450T193 419Q230 419 257 450T284 525Q284 567
258 596T193 626ZM540 317H541Q604 317 648 272T692 161Q692 93 648 45T539 -3T431 43T386 155Q386 223 431 270T540 317ZM540 260H539Q501 260 474 230T447 157T474 84T540 54T605 85T632 160Q632 201 605 230T540 260ZM140 0H72L589 680H659L140 0Z" />
<glyph unicode="&amp;" glyph-name="ampersand" horiz-adv-x="697" d="M605 385H695Q677 369 659 350T629 317T597 279T571 245T543 207T518 173Q581 92 643 65L644 -9Q555 13 466 111Q418 53 370 22T259 -9Q166 -9 109 48T52 190Q52 251 89 295T194 386Q125 438
125 519Q125 575 167 615T270 656Q326 656 365 618T405 523Q405 482 381 452T308 385Q395 324 475 220Q485 234 505 263T538 310T569 349T605 385ZM268 59Q312 59 348 85T424 162Q335 280 240 347Q187 310 158 275T129 194Q129 139 170 99T268 59ZM193 520Q193
467 261 422Q306 451 324 472T342 523Q342 554 321 576T269 598Q236 598 215 576T193 520Z" />
<glyph unicode="&apos;" glyph-name="quotesingle" horiz-adv-x="180" d="M50 719H129L117 464H62L50 719Z" />
<glyph unicode="(" glyph-name="parenleft" horiz-adv-x="294" d="M263 -108V-188Q153 -113 95 13T37 275Q37 413 97 540T263 741V663Q191 596 151 491T110 277Q110 169 150 65T263 -108Z" />
<glyph unicode=")" glyph-name="parenright" horiz-adv-x="294" d="M31 660V741Q140 666 198 540T257 277Q257 138 197 12T31 -188V-110Q104 -43 144 62T185 275T145 487T31 660Z" />
<glyph unicode="*" glyph-name="asterisk" horiz-adv-x="439" d="M48 505V570L129 563L180 561L149 609Q128 641 103 673L160 707Q167 685 194 634L220 584L245 634Q275 691 278 707L336 673Q330 668 289 609L258 561L310 563L391 571V505Q382 507 350 509T310
513L259 515L290 468L338 404L279 372Q274 385 245 443L221 494L192 443Q188 433 175 405T159 372L101 406Q116 424 150 469L180 515L129 513Q113 512 84 509T48 505Z" />
<glyph unicode="+" glyph-name="plus" horiz-adv-x="518" d="M294 458V284H459V222H294V48H224V222H59V284H224V458H294Z" />
<glyph unicode="," glyph-name="comma" horiz-adv-x="205" d="M78 111H155Q155 -72 97 -165H34Q78 -72 78 111Z" />
<glyph unicode="-" glyph-name="hyphen" horiz-adv-x="310" d="M32 270H277V200H32V270Z" />
<glyph unicode="." glyph-name="period" horiz-adv-x="203" d="M47 21T47 44T63 83T102 100Q124 100 140 84T156 44T140 5T102 -12T64 4Z" />
<glyph unicode="/" glyph-name="slash" horiz-adv-x="285" d="M75 -37H3L210 702H282L75 -37Z" />
<glyph unicode="0" glyph-name="zero" horiz-adv-x="518" d="M42 184T42 336T98 584T256 680Q358 680 416 584T474 336T416 88T256 -9Q155 -9 99 87ZM125 336Q125 211 159 136T256 61Q321 61 356 136T391 336Q391 460 356 535T256 610Q194 610 160 535T125 336Z" />
<glyph unicode="1" glyph-name="one" horiz-adv-x="518" d="M334 568V105Q334 30 337 0H250Q253 66 253 105V585Q160 548 125 529V598Q149 607 210 634T305 680H338Q334 648 334 568Z" />
<glyph unicode="2" glyph-name="two" horiz-adv-x="518" d="M59 0V36Q193 172 279 285Q325 344 340 382T356 465Q356 527 318 567T223 607Q174 607 133 585T72 529V633Q84 636 111 648T171 670T242 679Q332 679 387 623T442 475Q442 424 420 375T346 261Q292 192
177 71Q193 71 218 71T275 71T319 71Q433 73 464 76V-4Q419 0 306 0H59Z" />
<glyph unicode="3" glyph-name="three" horiz-adv-x="518" d="M215 609Q174 609 140 594T87 555V644Q94 646 119 655T171 671T229 678Q311 678 362 631T413 507Q413 450 380 409T294 352Q352 337 391 291T431 182Q431 98 375 45T228 -8Q202 -8 177 -4T138 4T105
16T79 26V116Q96 89 133 75T215 60Q274 60 310 96T347 191Q347 244 308 280T211 317Q200 317 186 315V382Q194 380 211 380Q263 380 297 412T331 495Q331 545 298 577T215 609Z" />
<glyph unicode="4" glyph-name="four" horiz-adv-x="518" d="M15 245L356 683H387Q386 657 386 565V273Q468 273 502 276V210Q477 212 386 212V107Q386 34 389 0H302Q305 25 305 107V212H123Q46 212 15 211V245ZM305 535L110 273H305V535Z" />
<glyph unicode="5" glyph-name="five" horiz-adv-x="518" d="M216 -12Q192 -12 167 -8T128 1T93 13T66 22V113Q86 87 123 73T201 58Q267 58 312 99T357 203Q357 265 313 306T202 348Q126 348 87 315L142 570Q157 634 160 673Q187 670 234 670H324Q381 670 414
674V598Q376 601 329 601H217L172 402Q192 412 237 412Q326 412 385 354T444 204Q444 113 378 51T216 -12Z" />
<glyph unicode="6" glyph-name="six" horiz-adv-x="518" d="M322 555Q294 523 190 393Q220 417 275 417Q360 417 419 356T478 205Q478 117 414 55T258 -8Q168 -8 105 55T41 209Q41 283 79 348T245 566Q311 642 326 670H426Q388 632 322 555ZM121 207Q121 146 161
104T260 61Q317 61 357 103T398 204Q398 264 357 306T258 349Q201 349 161 308T121 207Z" />
<glyph unicode="7" glyph-name="seven" horiz-adv-x="518" d="M162 597Q91 597 61 594V671Q83 669 162 669H400Q476 669 499 671Q480 641 451 584L205 91Q178 42 162 0H70Q89 26 131 104L381 597H162Z" />
<glyph unicode="8" glyph-name="eight" horiz-adv-x="518" d="M131 192Q131 139 167 102T255 64T344 101T381 190T344 280T255 318T167 281T131 192ZM148 500Q148 454 179 421T255 388Q300 388 331 420T363 499T332 576T255 607Q210 607 179 576T148 500ZM69 505Q69
577 122 627T255 678Q335 678 388 628T442 507Q442 452 413 412T339 354Q392 335 426 291T461 186Q461 105 403 49T255 -7T109 48T51 186Q51 244 84 289T169 354Q127 371 98 411T69 505Z" />
<glyph unicode="9" glyph-name="nine" horiz-adv-x="518" d="M195 0H96Q131 34 187 100L329 277Q298 253 251 253Q163 253 102 314T40 465T105 616T264 678Q352 678 415 614T479 460Q479 389 442 327T292 124Q279 109 273 101Q204 14 195 0ZM398 461Q398 522 359
565T263 608Q204 608 163 566T121 464Q121 405 162 363T262 320Q318 320 358 361T398 461Z" />
<glyph unicode=":" glyph-name="colon" horiz-adv-x="206" d="M51 346T51 368T66 405T103 421T140 406T155 368T140 331T103 315T66 330ZM51 18T51 40T66 77T103 93T140 78T155 40T140 3T103 -13T66 2Z" />
<glyph unicode=";" glyph-name="semicolon" horiz-adv-x="226" d="M66 347T66 369T81 406T118 422T155 407T170 369T155 332T118 316T81 331ZM81 105H157Q157 -75 101 -165H39Q81 -72 81 105Z" />
<glyph unicode="&lt;" glyph-name="less" horiz-adv-x="518" d="M465 4L43 243V263L465 502V426L146 253L465 81V4Z" />
<glyph unicode="=" glyph-name="equal" horiz-adv-x="518" d="M459 300H59V362H459V300ZM459 144H59V206H459V144Z" />
<glyph unicode="&gt;" glyph-name="greater" horiz-adv-x="518" d="M69 505L472 266V246L69 7V84L372 256L69 429V505Z" />
<glyph unicode="?" glyph-name="question" horiz-adv-x="451" d="M176 594Q119 594 71 564V641Q79 642 100 648T145 659T194 664Q276 664 325 615T375 488Q375 423 341 373T219 260Q226 214 235 174H156Q156 177 138 283Q230 347 260 386T291 477Q291 527 259
560T176 594ZM158 20T158 41T172 76T207 91Q228 91 243 77T258 41T243 6T207 -9Q187 -9 173 5Z" />
<glyph unicode="@" glyph-name="at" horiz-adv-x="829" d="M105 208Q105 74 195 -18T416 -111Q533 -111 591 -74L588 -142Q586 -142 525 -152T416 -162Q258 -162 151 -56T43 208Q43 366 152 478T419 590Q581 590 683 500T786 260Q786 157 729 91T588 24Q542 24
520 42T500 99Q456 28 375 28Q315 28 274 76T233 193Q233 279 285 340T412 402Q456 402 486 376T526 317Q536 381 535 392H598L557 140Q547 78 594 78Q648 78 685 126T723 254Q723 384 639 461T419 538Q289 538 197 441T105 208ZM511 228Q511 276 484 309T419 343Q370
343 335 302T300 202Q300 154 328 121T398 87Q445 87 478 128T511 228Z" />
<glyph unicode="A" glyph-name="A" horiz-adv-x="645" d="M645 0H541Q529 35 496 113L446 232H185L136 115Q101 31 92 0H0Q41 77 72 152L308 698H331L570 152Q610 62 645 0ZM418 299L315 551L212 299H418Z" />
<glyph unicode="B" glyph-name="B" horiz-adv-x="513" d="M71 0Q76 52 76 179V493Q76 645 72 685H220Q312 685 363 638T414 523Q414 475 389 438T329 388Q391 370 428 320T466 203Q466 116 403 58T232 0H71ZM384 205Q384 269 343 308T237 347H157V66H226Q295 66
339 104T384 205ZM157 622V407H234Q276 407 304 437T333 514Q333 562 299 592T213 622H157Z" />
<glyph unicode="C" glyph-name="C" horiz-adv-x="632" d="M127 460T127 343T211 143T416 60Q532 60 597 116V22Q489 -11 410 -11Q255 -11 150 92T44 343Q44 491 149 594T410 698Q438 698 466 695T510 688T552 677T590 667V571Q525 625 415 625Q295 625 211 543Z" />
<glyph unicode="D" glyph-name="D" horiz-adv-x="654" d="M265 0H72Q77 52 77 179V506Q77 635 72 685H265Q407 685 508 585T609 343T508 101T265 0ZM158 618V67H260Q370 67 448 148T526 343T448 537T259 618H158Z" />
<glyph unicode="E" glyph-name="E" horiz-adv-x="461" d="M237 618H157V400H236Q346 400 392 403V329Q345 332 236 332H157V68H245Q369 68 414 71V-3Q369 0 245 0H72Q76 110 76 179V507Q76 625 72 685H237Q344 685 406 689V614Q365 618 237 618Z" />
<glyph unicode="F" glyph-name="F" horiz-adv-x="449" d="M72 0Q76 62 76 179V506Q76 625 72 685H243Q344 685 406 689V614Q365 618 243 618H157V380H243Q317 380 377 384V308Q337 312 243 312H157V179Q157 93 160 0H72Z" />
<glyph unicode="G" glyph-name="G" horiz-adv-x="669" d="M599 192V22Q561 9 541 4T486 -7T412 -12Q252 -12 148 91T44 343T147 595T410 698Q495 698 586 665V571Q520 626 413 626Q289 626 208 544T127 343T209 142T412 59Q488 59 521 79V192Q521 258 517 318H603Q599
258 599 192Z" />
<glyph unicode="H" glyph-name="H" horiz-adv-x="689" d="M157 506V402H531V506Q531 643 528 685H616Q612 597 612 506V144Q612 56 616 0H528Q531 42 531 145V335H157V144Q157 56 161 0H73Q76 42 76 145V506Q76 644 73 685H161Q157 631 157 506Z" />
<glyph unicode="I" glyph-name="I" horiz-adv-x="241" d="M161 506V179Q161 62 165 0H76Q80 62 80 179V506Q80 625 76 685H165Q161 625 161 506Z" />
<glyph unicode="J" glyph-name="J" horiz-adv-x="239" d="M161 506V-3Q161 -93 111 -145T-18 -197Q-37 -197 -66 -191T-102 -183V-93Q-75 -127 -22 -127Q21 -127 50 -93T80 -3V506Q80 595 77 685H165Q161 625 161 506Z" />
<glyph unicode="K" glyph-name="K" horiz-adv-x="575" d="M157 506V360L342 572Q406 648 433 685H533Q489 641 423 566L237 355L466 110Q487 87 506 68T546 28T575 0H454Q420 47 386 83L157 331V179Q157 93 160 0H72Q76 62 76 179V506Q76 625 72 685H160Q157 595
157 506Z" />
<glyph unicode="L" glyph-name="L" horiz-adv-x="462" d="M157 506V69H277Q392 69 437 72V-4Q377 0 277 0H72Q76 110 76 179V506Q76 625 72 685H160Q157 595 157 506Z" />
<glyph unicode="M" glyph-name="M" horiz-adv-x="815" d="M696 698L754 160Q765 60 778 0H683Q683 36 674 136L640 502L416 -9H396L175 501L131 144Q119 44 118 0H31Q40 39 59 181L131 698H152L411 127L673 698H696Z" />
<glyph unicode="N" glyph-name="N" horiz-adv-x="697" d="M153 144Q153 56 157 0H72Q76 56 76 145V507Q76 592 72 700H91Q120 664 173 605L543 165V506Q543 559 540 685H624Q621 619 621 506V133Q621 46 624 -12H606Q578 24 532 77L155 525L153 144Z" />
<glyph unicode="O" glyph-name="O" horiz-adv-x="796" d="M44 196T44 343T147 593T398 697T649 594T752 343T649 92T398 -12T147 92ZM127 461T127 343T206 142T398 58T590 141T669 343T590 544T398 627T207 544Z" />
<glyph unicode="P" glyph-name="P" horiz-adv-x="486" d="M157 269V179Q157 62 161 0H73Q76 46 76 179V526Q76 640 73 685H226Q330 685 390 627T451 477Q451 387 388 328T224 269H157ZM157 622V331H218Q283 331 326 375T369 478Q369 538 328 580T217 622H157Z" />
<glyph unicode="Q" glyph-name="Q" horiz-adv-x="796" d="M44 196T44 343T147 594T398 698Q545 698 648 594T752 343Q752 244 708 169T600 51Q636 20 689 -13Q796 -76 890 -76Q937 -76 968 -67V-130Q926 -142 872 -142Q752 -142 627 -61Q582 -32 523 16Q469 -12
398 -12Q251 -12 148 92ZM127 343Q127 225 206 142T398 59T589 142T669 343Q669 460 590 543T398 627T207 544T127 343Z" />
<glyph unicode="R" glyph-name="R" horiz-adv-x="554" d="M158 284V173Q158 41 162 0H73Q77 41 77 173V506Q77 645 73 685H216Q327 685 389 630T451 485Q451 411 413 365T316 300Q328 285 417 165T553 0H442Q320 157 245 286Q233 284 212 284H158ZM158 620V344H223Q286
344 327 382T368 483Q368 540 328 580T213 620H158Z" />
<glyph unicode="S" glyph-name="S" horiz-adv-x="468" d="M155 525Q155 492 174 464T222 416T284 373T347 326T395 264T414 180Q414 94 357 40T207 -15Q178 -15 152 -11T98 0T51 10V124Q70 92 114 71T209 50Q264 50 295 83T327 170Q327 210 301 242T237 299T163
349T99 418T72 515Q72 601 127 650T270 699Q300 699 342 690T396 680V572Q370 636 270 636Q219 636 187 607T155 525Z" />
<glyph unicode="T" glyph-name="T" horiz-adv-x="617" d="M195 685H420Q546 685 593 688V614Q531 618 420 618H350Q349 581 349 489V179Q349 41 353 0H264Q267 46 267 179V489Q267 562 264 618H195Q86 618 24 614V688Q71 685 195 685Z" />
<glyph unicode="U" glyph-name="U" horiz-adv-x="673" d="M71 685H160Q156 631 156 506V275Q156 179 206 120T337 60T467 119T517 275V506Q517 643 514 685H602Q599 619 599 506V277Q599 145 526 67T337 -11Q220 -11 148 67T75 277V506Q75 631 71 685Z" />
<glyph unicode="V" glyph-name="V" horiz-adv-x="637" d="M143 566L322 136L498 566Q539 672 543 685H634Q608 638 563 534L326 -20H311L73 534Q23 648 1 685H99Q109 648 143 566Z" />
<glyph unicode="W" glyph-name="W" horiz-adv-x="971" d="M345 -15H333L72 547Q33 634 1 685H101Q114 647 151 566L348 124L457 378L381 546Q340 638 310 685H403Q418 641 458 554L495 467L534 557Q571 644 586 685H672Q656 661 602 545L530 388L644 128L827 554Q865
636 881 685H969L901 544L647 -15H637L491 304L345 -15Z" />
<glyph unicode="X" glyph-name="X" horiz-adv-x="525" d="M353 118L259 278L157 105Q116 34 100 0H1Q45 59 99 145L219 343L102 535Q47 628 3 685H108Q135 631 172 571L264 415L356 572L419 685H517Q479 636 419 538L304 350L422 155Q481 60 526 0H421Q362 104 353 118Z" />
<glyph unicode="Y" glyph-name="Y" horiz-adv-x="587" d="M250 0Q253 46 253 172V318L94 556Q41 635 0 685H105Q122 651 161 591L297 390L426 584Q471 650 488 685H587Q551 639 489 548L334 318V172Q334 62 338 0H250Z" />
<glyph unicode="Z" glyph-name="Z" horiz-adv-x="543" d="M420 534L150 68H348Q467 68 513 71V-3Q467 0 348 0H24Q53 44 115 152L384 618H210Q81 618 40 614V688Q86 685 210 685H509Q471 626 420 534Z" />
<glyph unicode="[" glyph-name="bracketleft" horiz-adv-x="338" d="M71 -182Q74 -149 74 -77V629Q74 700 71 734H230Q278 734 313 737V670Q280 673 229 673H141V-121H230Q278 -121 313 -118V-185Q280 -182 229 -182H71Z" />
<glyph unicode="\" glyph-name="backslash" horiz-adv-x="285" d="M282 -37H210L3 702H75L282 -37Z" />
<glyph unicode="]" glyph-name="bracketright" horiz-adv-x="338" d="M266 -182H110Q59 -182 26 -185V-118Q61 -121 109 -121H197V673H110Q59 673 26 670V737Q60 734 109 734H266Q264 688 264 629V-77Q264 -138 266 -182Z" />
<glyph unicode="^" glyph-name="asciicircum" horiz-adv-x="478" d="M236 634L108 453H31L231 708H246L445 453H365L236 634Z" />
<glyph unicode="_" glyph-name="underscore" horiz-adv-x="485" d="M11 -69H474V-116H11V-69Z" />
<glyph unicode="`" glyph-name="grave" horiz-adv-x="462" d="M110 664L212 512H143L30 664H110Z" />
<glyph unicode="a" glyph-name="a" horiz-adv-x="449" d="M185 395Q117 395 73 349V427L118 442Q163 457 202 457Q374 457 374 258V89Q374 50 400 50Q416 50 422 55V6Q397 -11 363 -11Q340 -11 324 2T304 42Q268 -11 190 -11Q121 -11 81 25T40 119Q40 177 81 215T195
254Q230 254 260 241T301 209V266Q301 324 273 359T185 395ZM117 123Q117 88 142 66T211 43Q249 43 276 66T303 123Q303 155 276 178T211 201Q167 201 142 179T117 123Z" />
<glyph unicode="b" glyph-name="b" horiz-adv-x="572" d="M69 103V686H23Q35 704 50 734H149Q146 704 146 631V359Q168 405 213 431T312 457Q407 457 470 391T533 227Q533 128 468 61T307 -7Q257 -7 213 17T146 86Q146 36 148 0H65Q69 41 69 103ZM143 294T143
225T188 108T299 59Q363 59 408 107T454 225Q454 293 408 342T297 391Q233 391 188 343Z" />
<glyph unicode="c" glyph-name="c" horiz-adv-x="419" d="M115 223Q115 155 161 108T272 60Q340 60 376 92V5Q365 4 346 1T309 -5T270 -7Q172 -7 105 60T38 223Q38 321 105 389T270 457Q295 457 329 452T374 445V358Q332 389 272 389Q206 389 161 341T115 223Z" />
<glyph unicode="d" glyph-name="d" horiz-adv-x="571" d="M503 645V103Q503 39 506 0H423Q425 19 425 90Q398 42 354 18T258 -7Q166 -7 103 61T39 225Q39 324 102 390T262 457Q377 457 425 366V686H379Q391 699 407 734H506Q503 686 503 645ZM428 224Q428 293
384 342T275 391Q210 391 164 343T118 226Q118 156 164 107T276 58Q339 58 383 107T428 224Z" />
<glyph unicode="e" glyph-name="e" horiz-adv-x="496" d="M456 229H119Q117 159 162 107T279 55Q361 55 417 92V18Q415 18 367 5T267 -8Q169 -8 104 58T39 223Q39 323 100 389T251 456Q301 456 342 435T407 382T445 314T458 246Q458 235 456 229ZM251 398Q203
398 168 366T121 284H376Q371 327 337 362T251 398Z" />
<glyph unicode="f" glyph-name="f" horiz-adv-x="292" d="M21 385V449H98V544Q98 638 139 689T252 740Q272 740 298 736T336 731V652Q315 676 267 676Q223 676 199 642T175 547V449H273V385H175V103Q175 36 178 0H95Q98 72 98 103V385H21Z" />
<glyph unicode="g" glyph-name="g" horiz-adv-x="494" d="M389 449H455Q455 399 411 369Q438 331 438 277Q438 202 382 149T246 96Q222 96 194 105T156 115Q141 115 130 100T119 62Q119 42 133 27T167 11Q171 11 198 15T246 19Q340 19 405 -21T470 -126Q470 -184
404 -225T244 -267Q150 -267 85 -227T19 -128Q19 -62 97 -23Q74 -15 60 9T46 58Q46 85 64 111T112 147Q55 201 55 277Q55 352 110 404T246 457Q317 457 372 408Q389 423 389 449ZM133 326T133 277T166 193T245 158Q292 158 326 193T360 277T326 360T245 394Q199
394 166 360ZM97 -127Q97 -163 139 -187T244 -212Q305 -212 347 -188T390 -129T346 -70T241 -45Q181 -45 139 -69T97 -127Z" />
<glyph unicode="h" glyph-name="h" horiz-adv-x="500" d="M359 103V261Q359 322 331 357T254 393Q203 393 175 356T146 261V103Q146 33 150 0H65Q69 33 69 103V686H23Q29 693 38 711T50 734H150Q146 699 146 631V381Q189 457 280 457Q356 457 396 403T436 259V103Q436
33 440 0H355Q359 50 359 103Z" />
<glyph unicode="i" glyph-name="i" horiz-adv-x="219" d="M150 346V104Q150 30 153 0H69Q72 33 72 104V401H26Q37 413 55 449H153Q150 414 150 346ZM64 585Q64 605 77 618T110 632T143 619T156 585Q156 566 143 553T110 540T78 553T64 585Z" />
<glyph unicode="j" glyph-name="j" horiz-adv-x="219" d="M150 346V-62Q150 -156 112 -207T4 -258Q-19 -258 -42 -255T-67 -251V-179Q-51 -193 -17 -193Q24 -193 48 -159T72 -60V401H26Q39 420 54 449H153Q150 412 150 346ZM64 567T64 586T77 618T109 632T141
619T155 586T142 553T109 540T77 553Z" />
<glyph unicode="k" glyph-name="k" horiz-adv-x="444" d="M146 631V238Q288 408 316 449H405Q364 408 222 237Q323 123 362 81T444 0H338Q319 25 146 215V103Q146 34 149 0H65Q69 31 69 103V686H23Q37 705 49 734H149Q146 700 146 631Z" />
<glyph unicode="l" glyph-name="l" horiz-adv-x="215" d="M146 631V103Q146 34 149 0H65Q69 31 69 103V686H23Q37 705 49 734H149Q146 700 146 631Z" />
<glyph unicode="m" glyph-name="m" horiz-adv-x="743" d="M333 0Q336 39 336 104V274Q336 394 244 394Q205 394 178 362T150 270V104Q150 36 153 0H70Q72 48 72 104V401H26Q43 423 55 449H150V382Q186 457 273 457Q371 457 399 369Q413 408 446 432T529 457Q600
457 639 410T678 275V104Q678 40 681 0H597Q600 44 600 104V266Q600 394 508 394Q468 394 441 361T414 271V104Q414 38 417 0H333Z" />
<glyph unicode="n" glyph-name="n" horiz-adv-x="503" d="M362 262Q362 327 332 360T257 394Q210 394 180 359T150 268V104Q150 44 153 0H69Q72 44 72 104V401H26Q38 417 55 449H150V380Q167 413 202 435T284 457Q357 457 398 406T439 261V104Q439 39 443 0H359Q362
44 362 104V262Z" />
<glyph unicode="o" glyph-name="o" horiz-adv-x="541" d="M39 224Q39 321 107 389T270 457Q366 457 434 389T502 224Q502 128 434 61T270 -7Q175 -7 107 60T39 224ZM114 292T114 224T159 109T270 61T381 108T427 224T381 340T270 389T160 341Z" />
<glyph unicode="p" glyph-name="p" horiz-adv-x="576" d="M72 -150V401H26Q40 419 54 449H150V355Q208 457 317 457Q409 457 473 389T537 226Q537 128 473 61T315 -7Q261 -7 217 16T150 85V-150Q150 -214 154 -253H69Q72 -209 72 -150ZM147 224Q147 156 192 107T302
58T412 106T458 224T412 342T300 391Q237 391 192 342T147 224Z" />
<glyph unicode="q" glyph-name="q" horiz-adv-x="573" d="M504 -139Q504 -208 508 -253H423Q427 -210 427 -136V89Q376 -7 258 -7Q167 -7 103 60T39 224T103 389T258 457Q374 457 427 364V381Q427 420 424 449H507Q504 413 504 335V-139ZM431 155T431 224T385
342T275 391Q210 391 164 343T118 226Q118 156 164 107T277 58Q340 58 385 106Z" />
<glyph unicode="r" glyph-name="r" horiz-adv-x="345" d="M267 457Q284 457 300 455T321 452V367Q293 384 256 384Q215 384 184 341T153 244V103Q153 45 157 0H73Q76 51 76 103V401H30Q46 421 57 449H147V347Q160 397 193 427T267 457Z" />
<glyph unicode="s" glyph-name="s" horiz-adv-x="357" d="M135 342Q135 314 163 290T224 250T285 198T313 115Q313 59 275 24T170 -12Q147 -12 123 -7T77 5T46 14V111Q61 84 96 66T166 47Q197 47 216 64T235 110Q235 140 207 165T146 206T85 257T57 336Q57 390
94 423T198 457Q223 457 256 449T298 440V353Q287 373 257 386T201 400Q169 400 152 384T135 342Z" />
<glyph unicode="t" glyph-name="t" horiz-adv-x="314" d="M87 564H170Q167 528 167 475V449H292V385H167V159Q167 57 239 57Q266 57 278 69V-3Q272 -3 252 -5T219 -8Q162 -8 126 29T90 144V385H19V449H90V475Q90 528 87 564Z" />
<glyph unicode="u" glyph-name="u" horiz-adv-x="506" d="M148 180Q148 118 178 87T252 55Q299 55 329 91T359 182V346Q359 406 356 449H440Q436 410 436 346V99Q436 34 451 0H376Q362 25 361 69Q318 -8 227 -8Q157 -8 114 39T70 173V401H24Q37 416 52 449H150Q148
391 148 346V180Z" />
<glyph unicode="v" glyph-name="v" horiz-adv-x="441" d="M1 449H95Q102 423 119 385L226 127L323 366Q343 413 352 449H439Q404 384 386 343L230 -15H213L53 347Q26 410 1 449Z" />
<glyph unicode="w" glyph-name="w" horiz-adv-x="662" d="M316 450H353L473 134L557 380Q576 439 577 449H661Q636 397 616 342L485 -15H466L331 330L205 -15H185L45 347Q17 417 2 449H94Q107 398 122 359L203 134L316 450Z" />
<glyph unicode="x" glyph-name="x" horiz-adv-x="392" d="M260 65L195 169L152 100Q114 40 96 0H3Q33 39 77 108L153 224L75 348Q43 402 8 449H103Q123 407 146 367L199 281L253 368Q280 412 298 449H388Q359 411 317 348L241 226L315 108Q361 35 391 0H296Q276
39 260 65Z" />
<glyph unicode="y" glyph-name="y" horiz-adv-x="459" d="M124 -200Q103 -234 82 -246T26 -259Q14 -259 1 -254Q33 -214 64 -168Q165 -12 202 58L56 347L1 449H95Q103 424 128 372L243 144Q302 268 340 365Q356 405 370 449H459Q441 417 410 343Q326 149 275 54Q218
-54 124 -200Z" />
<glyph unicode="z" glyph-name="z" horiz-adv-x="400" d="M376 449L139 64H289Q337 64 371 67V-3Q338 0 288 0H22L258 384H117Q69 384 35 381V452Q68 449 118 449H376Z" />
<glyph unicode="{" glyph-name="braceleft" horiz-adv-x="344" d="M323 736V677Q308 679 277 679Q238 679 210 646T182 564Q182 530 185 483T189 402Q189 350 163 319T106 278Q136 270 162 241T189 161Q189 126 186 75T182 -11Q182 -64 210 -95T277 -127Q305 -127
323 -124V-184Q297 -182 255 -182Q196 -182 154 -138T111 -15Q111 17 115 66T119 153Q119 203 90 225T17 248V308Q61 308 90 332T119 411Q119 443 115 489T111 568Q111 639 152 686T255 734Q289 734 323 736Z" />
<glyph unicode="|" glyph-name="bar" horiz-adv-x="204" d="M134 -185H69L70 740H135L134 -185Z" />
<glyph unicode="}" glyph-name="braceright" horiz-adv-x="344" d="M88 -182Q54 -182 20 -184V-124Q47 -127 66 -127Q105 -127 132 -96T160 -11Q160 24 157 75T153 161Q153 212 180 241T237 278Q206 288 180 319T153 402Q153 435 156 482T160 564Q160 612 132
645T66 679Q34 679 20 677V736Q38 734 88 734Q148 734 189 687T230 568Q230 535 227 489T223 411Q223 357 252 333T325 308V248Q281 248 252 225T223 153Q223 116 226 67T230 -15Q230 -93 188 -137T88 -182Z" />
<glyph unicode="~" glyph-name="asciitilde" horiz-adv-x="518" d="M105 160H38Q41 229 77 272T169 316Q195 316 216 307T250 283T276 255T304 232T338 222Q371 222 390 246T412 311H480Q477 243 439 200T342 156Q309 156 284 170T247 202T215 233T173 248Q143
248 126 224T105 160Z" />
</font>
</defs>
</svg>
